<?xml version="1.0" encoding="utf-8"?>
<!-- Generator: Adobe Illustrator 21.0.0, SVG Export Plug-In . SVG Version: 6.00 Build 0)  -->
<svg version="1.1" id="Layer_1" xmlns="http://www.w3.org/2000/svg" xmlns:xlink="http://www.w3.org/1999/xlink" x="0px" y="0px"
	 viewBox="0 0 1050.9 109.2" style="enable-background:new 0 0 1050.9 109.2;" xml:space="preserve">
<style type="text/css">
	.st0{fill:url(#SVGID_1_);}
	.st1{fill:#E2001C;}
</style>
<linearGradient id="SVGID_1_" gradientUnits="userSpaceOnUse" x1="-1.573" y1="53.8297" x2="103.2828" y2="55.3065">
	<stop  offset="0" style="stop-color:#220504"/>
	<stop  offset="0.1133" style="stop-color:#3D0407"/>
	<stop  offset="0.4289" style="stop-color:#83020F"/>
	<stop  offset="0.6924" style="stop-color:#B60115"/>
	<stop  offset="0.8903" style="stop-color:#D60019"/>
	<stop  offset="1" style="stop-color:#E2001A"/>
</linearGradient>
<path class="st0" d="M64.1,52.5c-0.3-1.1-0.7-2.2-1.3-3.2c1.2-0.6,2.5-1,3.9-1.1l3.5-0.2c0.9,2.2,1.4,4.7,1.4,7.2c0,1-0.1,2-0.3,3
	C69.5,55.7,67,53.7,64.1,52.5z M36.1,52.2c-0.2,1-0.3,2-0.3,3c0,2.6,0.5,5,1.4,7.2l3.5-0.2c1.4-0.1,2.7-0.5,3.9-1.1
	c-0.6-1-1-2-1.3-3.2C40.5,56.7,38,54.7,36.1,52.2z M55.9,37l-1.5,3.2c-0.6,1.3-0.9,2.6-1,4c0.2,0,0.3,0,0.5,0c1,0,2,0.2,2.9,0.4
	c2.5-1.9,5.3-3.1,8.4-3.6C62.5,38.9,59.3,37.5,55.9,37z M39.5,44.2l1.9,3c0.8,1.2,1.8,2.2,2.9,2.9c0.5-1,1.2-2,2-2.8
	c-0.4-3.2,0-6.3,1.2-9.3C44.3,39.3,41.5,41.5,39.5,44.2z M68,66.2l-1.9-3c-0.8-1.2-1.8-2.2-2.9-2.9c-0.5,1-1.2,2-2,2.8
	c0.4,3.2,0,6.3-1.2,9.3C63.3,71.1,66,69,68,66.2z M57.3,55.2c0-2-1.6-3.7-3.6-3.7c-2,0-3.6,1.6-3.6,3.7c0,2,1.6,3.7,3.6,3.7
	C55.7,58.9,57.3,57.2,57.3,55.2z M53.2,70.2c0.6-1.3,0.9-2.6,1-4c-0.2,0-0.3,0-0.5,0c-1,0-2-0.2-2.9-0.4c-2.5,1.9-5.3,3.1-8.4,3.6
	c2.6,2.2,5.7,3.6,9.2,4L53.2,70.2z M114.9,0.1L114.9,0.1H53.8C24.1,0.1,0,24.8,0,55.2s24.1,55.1,53.8,55.1
	c29.6,0,53.8-24.7,53.8-55.1c0-6.3-1-12.5-3.1-18.4H71.3c4.7,4.7,7.6,11.2,7.6,18.4c0,14.2-11.3,25.7-25.1,25.7
	c-13.8,0-25.1-11.5-25.1-25.7s11.3-25.7,25.1-25.7h61.2h0h13.5l10.2-29.4H114.9z"/>
<polygon class="st1" points="215.8,0 205.5,29.5 1039.6,29.5 1050.9,0 "/>
<path d="M177.6,109.7l5-13.5h21.8c4.2,0,7.2-2.2,8.8-6.4l1.5-4.1h-12.1c-9.7,0-15.4-5.8-12.8-12.9l12.4-33.6h20l-9.8,26.6
	c-1.5,4,0,6.4,3.9,6.4h3.4l12.2-33h20l-18.5,50.1c-4.5,12.2-16.5,20.4-33.4,20.4H177.6z M258.9,57.3c4.3-11.6,17.1-19.3,31.8-19.3
	c15.3,0,22.8,7.7,18.5,19.3l-3.4,9.1c-4.3,11.6-17.2,19.3-32.3,19.3h-5l-8.7,23.5h-20L258.9,57.3z M277.1,72.2c4.5,0,7-1.6,8.4-5.3
	l4-10.8c1-2.7-0.3-4.3-3.6-4.3c-3,0-5.5,1.6-6.5,4.3l-5.9,16.1H277.1z M319.4,58.6c4.4-11.9,18.4-19.9,35-19.9h18.4l-5,13.5h-18.4
	c-4.8,0-8.5,2.4-10,6.4l-2.7,7.2h5.6c17,0,20.8,9.2,16.8,20.2l-1.3,3.6c-4.9,13.2-14.6,20.1-31.7,20.1h-25.6L319.4,58.6z
	 M329.5,96.2c3.9,0,6.6-2.5,8.2-6.6l1.3-3.5c1.5-4.2,0.7-6.8-3.2-6.8h-3.9l-6.2,16.9H329.5z M366.9,91.1l12.5-33.8
	c4.3-11.6,17.5-19.3,32.7-19.3c15.3,0,22.8,7.7,18.5,19.3l-12.5,33.8c-4.3,11.6-17.5,19.3-32.7,19.3
	C370.1,110.4,362.6,102.7,366.9,91.1z M397.5,92.3l13.4-36.2c1-2.8-0.4-4.4-3.8-4.4c-3.4,0-6,1.6-7.1,4.4l-13.4,36.2
	c-1,2.8,0.4,4.4,3.8,4.4C393.9,96.7,396.5,95.1,397.5,92.3z M492.6,39.2l-5,13.5H473l-20.9,56.5h-19.9l20.9-56.5h-14.6l5-13.5H492.6
	z M479.9,90.4l12-32.4c4.3-11.6,17.2-19.3,32.3-19.3h17.2l-5,13.5H522c-4.9,0-8.6,2.3-10.1,6.3l-3.3,9h18.8l-4.8,13h-18.8l-3.5,9.4
	c-1.5,4,0.5,6.3,5.4,6.3h14.4l-5,13.5H498C482.9,109.7,475.7,102,479.9,90.4z M592.9,61.4c-1.8,4.9-5.7,9.2-11.2,12.4
	c3.2,3.2,3.9,7.5,2.1,12.4l-8.5,23h-20l8.9-24.2c1-2.7-0.2-4.3-3.2-4.3c-3,0-5.4,1.6-6.4,4.3l-8.9,24.2h-20l8.5-23
	c1.8-4.9,5.7-9.2,11.2-12.4c-3.2-3.2-3.9-7.5-2.1-12.4l8.2-22.2h20l-8.6,23.4c-1,2.7,0.2,4.3,3.2,4.3c3,0,5.4-1.6,6.4-4.3l8.6-23.4
	h20L592.9,61.4z M643.9,39.2h19.9l-25.8,70H618l10.5-28.5h-9.3l-10.5,28.5h-19.9l25.8-70h19.9l-10.3,28h9.3L643.9,39.2z M658.2,91.1
	l12.5-33.8C675,45.7,688.2,38,703.4,38c15.3,0,22.8,7.7,18.5,19.3l-12.5,33.8c-4.3,11.6-17.5,19.3-32.7,19.3
	C661.5,110.4,653.9,102.7,658.2,91.1z M688.8,92.3l13.4-36.2c1-2.8-0.4-4.4-3.8-4.4c-3.4,0-6,1.6-7.1,4.4l-13.4,36.2
	c-1,2.8,0.4,4.4,3.8,4.4C685.2,96.7,687.8,95.1,688.8,92.3z M706.9,107.7l3.5-9.6c0.4-1.2,1.6-1.8,3.4-2.1c5.2-0.5,8.5-3.1,10.4-8.3
	l11-29.9c4.2-11.5,17.3-19.1,32.7-19.1h23.8l-26.1,70.6h-19.9l21.1-57.1h-3.3c-3.8,0-6.9,2-8.2,5.5l-11.8,31.9
	c-4.4,11.8-17.2,19.3-34.6,20C707.1,109.7,706.4,109,706.9,107.7z M786,91.1l12.5-33.8c4.3-11.6,17.5-19.3,32.7-19.3
	c15.3,0,22.8,7.7,18.5,19.3l-12.5,33.8c-4.3,11.6-17.5,19.3-32.7,19.3C789.2,110.4,781.7,102.7,786,91.1z M816.6,92.3l13.4-36.2
	c1-2.8-0.4-4.4-3.8-4.4s-6,1.6-7.1,4.4l-13.4,36.2c-1,2.8,0.4,4.4,3.8,4.4S815.6,95.1,816.6,92.3z M861.7,60.1
	c4.9-13.4,18.2-21.3,35.8-21.3h16.2l-5,13.5H893c-5.7,0-9.1,2.2-10.8,6.7l-18.5,50.2h-20.2L861.7,60.1z M953,39.2h19.9l-25.8,70
	h-23.8c-18.1,0-22.7-8.7-18.4-20.3l18.4-49.7h20.2l-18.5,50.2c-1.4,3.8,0,6.4,3.9,6.4h3.4L953,39.2z M1016.2,39.2h19.9l-25.8,70
	h-23.8c-18.1,0-22.7-8.7-18.4-20.3l18.4-49.7h20.2L988,89.5c-1.4,3.8,0,6.4,3.9,6.4h3.4L1016.2,39.2z M208.4,0h-62.3l-10.4,29.5
	h22.7l-30.2,80.4h22.9l30.2-80.4h16.8L208.4,0z"/>
</svg>
